<svg width="25" height="25" viewBox="0 0 25 25" fill="none" xmlns="http://www.w3.org/2000/svg">
<path d="M25 12.5C25 14.9723 24.2669 17.389 22.8934 19.4446C21.5199 21.5002 19.5676 23.1024 17.2835 24.0485C14.9995 24.9946 12.4861 25.2421 10.0614 24.7598C7.63661 24.2775 5.40933 23.087 3.66117 21.3388C1.91301 19.5907 0.722505 17.3634 0.24019 14.9386C-0.242126 12.5139 0.005416 10.0005 0.951511 7.71646C1.89761 5.43238 3.49976 3.48015 5.55538 2.10663C7.61099 0.733112 10.0277 0 12.5 0C15.8152 0 18.9946 1.31696 21.3388 3.66116C23.683 6.00537 25 9.18479 25 12.5Z" fill="#F7931A"/>
<path fill-rule="evenodd" clip-rule="evenodd" d="M9.59359 6.54351L12.2929 7.27476L12.8962 5L14.2458 5.37049L13.666 7.55127L14.7669 7.85047L15.3477 5.64592L16.7209 6.01748L16.1293 8.23392C16.1293 8.23392 18.3716 8.73618 18.8991 10.581C19.4266 12.4259 17.7395 13.3948 17.2184 13.4315C17.2184 13.4315 19.1831 14.5214 18.5083 16.6654C17.8335 18.8095 15.762 19.1929 13.5827 18.7015L12.9912 21L11.6181 20.6284L12.2213 18.3656L11.1322 18.0653L10.5289 20.3444L9.16648 19.9739L9.77083 17.7056L7 16.9495L7.69831 15.3812C7.69831 15.3812 8.47991 15.5972 8.77568 15.6685C9.07145 15.7398 9.26151 15.4287 9.3448 15.1176C9.42808 14.8065 10.6827 9.65105 10.8012 9.22656C10.9197 8.80207 10.8717 8.47047 10.3741 8.33977C9.87654 8.20907 9.19958 8.00493 9.19958 8.00493L9.59359 6.54351ZM12.3164 13.371L11.5689 16.377C11.5689 16.377 15.2751 17.7304 15.7492 15.8262C16.2233 13.9219 12.3164 13.371 12.3164 13.371ZM12.6602 11.9453L13.3937 9.19091C13.3937 9.19091 16.5671 9.76554 16.1763 11.2983C15.7855 12.831 13.9148 12.2434 12.6602 11.9453Z" fill="white"/>
</svg>
