<svg width="20" height="20" viewBox="0 0 20 20" fill="none" xmlns="http://www.w3.org/2000/svg">
<g id="print">
<mask id="mask0_581_3988" style="mask-type:alpha" maskUnits="userSpaceOnUse" x="0" y="0" width="20" height="20">
<rect id="Bounding box" width="20" height="20" fill="#D9D9D9"/>
</mask>
<g mask="url(#mask0_581_3988)">
<path id="print_2" d="M13.3332 6.66667V4.16667H6.6665V6.66667H4.99984V3.33333C4.99984 3.09722 5.0797 2.89931 5.23942 2.73958C5.39914 2.57986 5.59706 2.5 5.83317 2.5H14.1665C14.4026 2.5 14.6005 2.57986 14.7603 2.73958C14.92 2.89931 14.9998 3.09722 14.9998 3.33333V6.66667H13.3332ZM14.9998 10.4167C15.2359 10.4167 15.4339 10.3368 15.5936 10.1771C15.7533 10.0174 15.8332 9.81944 15.8332 9.58333C15.8332 9.34722 15.7533 9.14931 15.5936 8.98958C15.4339 8.82986 15.2359 8.75 14.9998 8.75C14.7637 8.75 14.5658 8.82986 14.4061 8.98958C14.2464 9.14931 14.1665 9.34722 14.1665 9.58333C14.1665 9.81944 14.2464 10.0174 14.4061 10.1771C14.5658 10.3368 14.7637 10.4167 14.9998 10.4167ZM6.6665 15.8333H13.3332V12.5H6.6665V15.8333ZM6.6665 17.5C6.20817 17.5 5.81581 17.3368 5.48942 17.0104C5.16303 16.684 4.99984 16.2917 4.99984 15.8333V14.1667H2.49984C2.26373 14.1667 2.06581 14.0868 1.90609 13.9271C1.74637 13.7674 1.6665 13.5694 1.6665 13.3333V9.16667C1.6665 8.45833 1.90956 7.86458 2.39567 7.38542C2.88178 6.90625 3.47206 6.66667 4.1665 6.66667H15.8332C16.5415 6.66667 17.1353 6.90625 17.6144 7.38542C18.0936 7.86458 18.3332 8.45833 18.3332 9.16667V13.3333C18.3332 13.5694 18.2533 13.7674 18.0936 13.9271C17.9339 14.0868 17.7359 14.1667 17.4998 14.1667H14.9998V15.8333C14.9998 16.2917 14.8366 16.684 14.5103 17.0104C14.1839 17.3368 13.7915 17.5 13.3332 17.5H6.6665ZM16.6665 12.5V9.16667C16.6665 8.93056 16.5866 8.73264 16.4269 8.57292C16.2672 8.41319 16.0693 8.33333 15.8332 8.33333H4.1665C3.93039 8.33333 3.73248 8.41319 3.57275 8.57292C3.41303 8.73264 3.33317 8.93056 3.33317 9.16667V12.5H4.99984V10.8333H14.9998V12.5H16.6665Z" fill="#1193F0"/>
</g>
</g>
</svg>
